<svg width="240" height="240" viewBox="0 0 240 240" fill="none" xmlns="http://www.w3.org/2000/svg">
<path d="M219.604 98.8063L237.065 96.3877L238.005 103.643C238.14 104.987 238.14 106.062 237.737 107.137C237.334 108.212 236.797 109.018 235.991 109.555C235.185 110.227 234.245 110.63 233.036 110.764C231.827 110.899 230.752 110.764 229.812 110.361C228.872 109.958 228.2 109.286 227.529 108.346C226.992 107.405 226.589 106.331 226.454 104.987L225.783 100.419L229.141 100.016L229.678 103.778C229.812 104.449 229.947 104.987 230.215 105.39C230.484 105.793 230.752 106.062 231.155 106.196C231.558 106.331 231.961 106.465 232.499 106.331C233.036 106.196 233.439 106.062 233.842 105.793C234.11 105.524 234.379 105.121 234.513 104.718C234.648 104.315 234.648 103.778 234.513 103.106L234.245 101.09L220.276 103.106L219.604 98.8063ZM229.006 107.54L221.619 113.049L220.947 108.48L228.335 103.106L229.006 107.54Z" fill="black"/>
<path d="M221.619 116.273L239.214 116.676L238.946 128.903L235.453 128.769L235.722 120.707L232.096 120.573L231.961 127.963L228.469 127.828L228.603 120.438L224.977 120.304L224.708 128.366L221.216 128.231L221.619 116.273Z" fill="black"/>
<path d="M220.947 132.665L238.274 136.024L236.931 143.146C236.662 144.489 236.259 145.564 235.588 146.37C234.916 147.176 234.11 147.848 233.036 148.117C232.096 148.52 230.887 148.52 229.812 148.251C228.603 147.983 227.663 147.58 226.857 146.908C226.051 146.236 225.514 145.295 225.246 144.221C224.977 143.146 224.977 141.936 225.111 140.593L225.917 136.159L229.141 136.831L228.469 140.458C228.335 141.13 228.335 141.668 228.469 142.071C228.603 142.474 228.872 142.877 229.141 143.28C229.544 143.549 229.947 143.817 230.484 143.817C231.021 143.952 231.558 143.952 231.961 143.817C232.364 143.683 232.767 143.414 233.036 143.011C233.304 142.608 233.573 142.071 233.707 141.533L234.11 139.518L220.276 136.831L220.947 132.665Z" fill="black"/>
<path d="M229.947 165.718L228.469 169.615L217.858 165.584C216.649 165.047 215.709 164.375 215.038 163.434C214.366 162.494 213.963 161.419 213.829 160.21C213.695 159 213.963 157.657 214.5 156.313C215.038 154.969 215.709 153.76 216.649 152.954C217.59 152.148 218.53 151.61 219.739 151.342C220.813 151.073 222.022 151.207 223.231 151.745L233.842 155.776L232.364 159.806L222.156 155.776C221.619 155.507 221.082 155.507 220.545 155.507C220.007 155.641 219.47 155.776 219.067 156.179C218.664 156.582 218.261 156.985 218.127 157.657C217.993 158.329 217.858 158.866 217.858 159.403C217.993 159.941 218.127 160.478 218.53 160.881C218.933 161.284 219.336 161.688 219.873 161.822L229.947 165.718Z" fill="black"/>
<path d="M210.202 166.928L225.246 176.064L221.485 182.379C220.813 183.454 220.007 184.395 219.336 184.932C218.664 185.47 217.724 185.738 216.918 185.873C216.112 185.873 215.306 185.738 214.635 185.201C214.097 184.798 213.56 184.395 213.292 183.857C213.023 183.32 212.889 182.782 212.754 182.245C212.754 181.707 212.754 181.036 213.023 180.364L212.889 180.229C212.486 180.767 211.948 181.304 211.411 181.573C210.874 181.842 210.068 182.111 209.396 182.111C208.725 182.111 207.919 181.842 207.247 181.439C206.442 180.901 205.904 180.364 205.501 179.558C205.098 178.752 204.964 177.811 205.098 176.87C205.233 175.93 205.636 174.855 206.307 173.646L210.202 166.928ZM210.874 172.437L209.531 174.721C208.993 175.527 208.859 176.199 208.859 176.736C208.993 177.274 209.262 177.677 209.799 178.08C210.202 178.348 210.605 178.483 211.008 178.483C211.411 178.483 211.814 178.348 212.083 178.08C212.486 177.811 212.754 177.542 213.023 177.005L214.5 174.721L210.874 172.437ZM216.784 176.064L215.575 178.08C215.306 178.483 215.172 178.886 215.172 179.289C215.172 179.692 215.172 180.095 215.306 180.364C215.441 180.633 215.709 180.901 216.112 181.17C216.649 181.439 217.187 181.573 217.59 181.304C218.127 181.17 218.53 180.767 218.933 180.095L220.142 178.08L216.784 176.064Z" fill="black"/>
<path d="M200.666 181.707L213.963 193.128L211.143 196.353L200.397 187.082L195.696 192.591L193.01 190.307L200.666 181.707Z" fill="black"/>
<path d="M199.054 208.983L187.1 196.084L190.189 193.263L202.143 206.161L199.054 208.983Z" fill="black"/>
<path d="M177.295 217.313L180.787 214.895C181.056 215.164 181.459 215.432 181.728 215.701C182.131 215.835 182.399 215.97 182.802 216.104C183.205 216.238 183.608 216.104 184.011 215.97C184.414 215.835 184.817 215.701 185.22 215.432C185.891 214.895 186.429 214.357 186.697 213.686C186.966 213.014 186.966 212.208 186.832 211.401C186.697 210.595 186.294 209.655 185.623 208.714C184.951 207.774 184.28 207.102 183.608 206.564C182.936 206.161 182.131 205.893 181.459 205.893C180.787 205.893 179.982 206.161 179.31 206.699C178.907 206.967 178.638 207.236 178.37 207.639C178.101 208.042 177.967 208.311 177.833 208.714C177.698 209.117 177.698 209.386 177.698 209.789C177.698 210.192 177.833 210.595 177.967 210.998L174.475 213.417C174.072 212.745 173.803 211.939 173.669 211.133C173.534 210.327 173.534 209.386 173.803 208.58C173.937 207.639 174.34 206.833 174.878 206.027C175.415 205.221 176.221 204.415 177.161 203.743C178.504 202.802 179.847 202.265 181.325 202.13C182.802 201.996 184.145 202.265 185.488 202.937C186.832 203.608 188.04 204.818 189.115 206.296C190.189 207.908 190.861 209.386 190.995 210.998C191.13 212.476 190.861 213.954 190.324 215.164C189.652 216.507 188.712 217.582 187.503 218.388C186.563 219.06 185.757 219.463 184.817 219.732C183.877 220.001 183.071 220.135 182.131 220.001C181.19 219.866 180.385 219.732 179.579 219.194C178.773 218.657 177.967 218.119 177.295 217.313Z" fill="black"/>
<path d="M148.552 226.853C147.88 224.972 147.746 223.36 148.015 221.882C148.283 220.404 148.821 219.06 149.895 217.985C150.97 216.91 152.044 216.104 153.522 215.567C154.999 215.029 156.476 214.895 157.954 215.164C159.431 215.432 160.64 216.104 161.849 217.045C163.058 217.985 163.864 219.463 164.535 221.344C165.207 223.225 165.341 224.838 165.073 226.316C164.804 227.794 164.267 229.137 163.192 230.212C162.252 231.287 161.043 232.093 159.566 232.631C158.088 233.168 156.611 233.302 155.133 233.034C153.656 232.765 152.447 232.227 151.238 231.153C150.029 230.078 149.089 228.734 148.552 226.853ZM152.581 225.375C152.984 226.45 153.387 227.256 154.059 227.928C154.596 228.6 155.268 229.003 155.939 229.137C156.611 229.271 157.417 229.271 158.223 229.003C159.028 228.734 159.566 228.331 160.103 227.659C160.506 227.122 160.775 226.316 160.775 225.509C160.775 224.703 160.64 223.628 160.237 222.553C159.834 221.479 159.431 220.672 158.76 220.001C158.223 219.329 157.551 218.926 156.879 218.791C156.208 218.657 155.402 218.657 154.596 218.926C153.79 219.194 153.119 219.597 152.716 220.269C152.313 220.807 152.044 221.613 152.044 222.419C152.044 223.36 152.178 224.3 152.581 225.375Z" fill="black"/>
<path d="M141.702 219.329L144.522 236.661L132.703 238.542L132.166 235.183L139.821 233.974L139.284 230.346L132.434 231.421L131.897 228.062L138.747 226.987L137.672 220.001L141.702 219.329Z" fill="black"/>
<path d="M119.137 221.747L117.794 239.214L113.496 238.946L114.033 231.959L107.183 231.421L106.646 238.408L102.482 238.139L103.825 220.672L107.989 220.941L107.452 227.928L114.302 228.465L114.839 221.479L119.137 221.747Z" fill="black"/>
<path d="M96.1692 218.926L100.602 220.135L90.1251 235.452L84.6182 233.974L83.678 215.432L88.1104 216.642L88.5133 230.481H88.6476L96.1692 218.926ZM94.8261 225.778L85.6927 223.225L86.4986 220.135L95.632 222.688L94.8261 225.778Z" fill="black"/>
<path d="M61.3818 216.91L65.2769 218.791C65.1426 219.194 65.0083 219.597 65.0083 220.001C65.0083 220.404 65.1426 220.807 65.2769 221.075C65.4112 221.344 65.6798 221.747 65.9485 222.016C66.2171 222.285 66.62 222.553 67.023 222.822C67.8289 223.225 68.5004 223.36 69.3063 223.225C69.9779 223.091 70.7838 222.822 71.4554 222.285C72.1269 221.747 72.6642 220.941 73.2014 220.001C73.7387 218.926 74.0073 217.985 74.1416 217.179C74.1416 216.373 74.0073 215.567 73.7387 214.895C73.3358 214.223 72.7985 213.82 72.1269 213.417C71.724 213.148 71.321 213.014 70.9181 213.014C70.5152 213.014 70.1122 213.014 69.7093 213.014C69.3063 213.014 69.0377 213.282 68.6348 213.417C68.3661 213.686 67.9632 213.954 67.8289 214.223L64.0681 212.208C64.471 211.536 65.0083 210.998 65.6798 210.461C66.3514 209.923 67.1573 209.52 67.9632 209.252C68.7691 208.983 69.7093 208.849 70.7838 208.983C71.8583 209.117 72.7985 209.386 73.873 209.923C75.3505 210.595 76.425 211.536 77.2309 212.745C78.0368 213.954 78.4397 215.298 78.4397 216.776C78.4397 218.254 78.0368 219.866 77.2309 221.613C76.2907 223.36 75.3505 224.569 74.0073 225.509C72.7985 226.316 71.321 226.853 69.9779 226.853C68.5004 226.853 67.1573 226.584 65.6798 225.912C64.7396 225.375 63.9337 224.838 63.2622 224.166C62.5906 223.494 62.0533 222.688 61.6504 221.882C61.2474 221.075 61.1131 220.135 61.1131 219.329C60.8445 218.791 60.9788 217.851 61.3818 216.91Z" fill="black"/>
<path d="M63.2622 204.818L52.517 218.791L49.1591 216.238L53.7258 210.327L53.5915 210.192L44.4581 212.476L40.4287 209.386L50.0993 206.967L51.0395 195.412L55.069 198.503L54.2631 206.699L56.9494 206.027L59.9043 202.265L63.2622 204.818Z" fill="black"/>
<path d="M48.8905 193.128L35.9963 205.086L27.6688 196.084L30.2208 193.8L35.5934 199.712L38.2797 197.293L33.31 191.919L35.862 189.635L40.8316 195.009L43.5179 192.591L38.1453 186.679L40.6973 184.395L48.8905 193.128Z" fill="black"/>
<path d="M38.011 180.901L23.2364 190.575L19.207 184.529C18.5354 183.454 17.9982 182.379 17.9982 181.304C17.8638 180.229 17.9982 179.289 18.5354 178.348C18.9384 177.408 19.7442 176.602 20.6844 175.93C21.759 175.258 22.6992 174.855 23.7737 174.855C24.8482 174.855 25.7884 175.124 26.5943 175.661C27.5345 176.199 28.3404 177.139 29.012 178.214L31.5639 182.111L28.7433 183.992L26.7286 180.767C26.3257 180.229 26.057 179.826 25.6541 179.558C25.2511 179.289 24.8482 179.155 24.4453 179.155C24.0423 179.155 23.6394 179.289 23.1021 179.558C22.6992 179.826 22.2962 180.229 22.1619 180.633C22.0276 181.036 21.8933 181.439 22.0276 181.842C22.1619 182.245 22.2962 182.782 22.6992 183.32L23.908 185.066L35.7277 177.274L38.011 180.901ZM25.9227 177.005L30.2208 168.943L32.7728 172.84L28.3404 180.767L25.9227 177.005Z" fill="black"/>
<path d="M28.7433 165.987L12.6256 173.108L10.8795 169.212L23.7737 163.434L20.8188 156.716L23.908 155.373L28.7433 165.987Z" fill="black"/>
<path d="M21.8933 148.386L22.9678 152.82L4.43238 151.342L3.08924 145.833L18.6697 135.89L19.7442 140.324L7.92456 147.445V147.58L21.8933 148.386ZM15.3119 150.67L13.0285 141.399L16.1178 140.593L18.4011 149.864L15.3119 150.67Z" fill="black"/>
<path d="M0 118.423L17.5952 117.617L17.7295 121.245L7.92456 128.769V128.903L17.9982 128.366L18.2668 132.665L0.671572 133.606L0.537258 129.709L10.3422 122.32V122.185L0.26863 122.723L0 118.423Z" fill="black"/>
<path d="M18.5354 107.002L17.7295 113.452L0.26863 111.168L1.07452 104.718C1.34315 102.971 1.8804 101.493 2.68629 100.284C3.49218 99.075 4.70101 98.2688 6.04416 97.7314C7.3873 97.1939 8.99908 97.0596 10.8795 97.3283C12.7599 97.597 14.2373 98.1344 15.4462 98.9406C16.655 99.7468 17.4609 100.956 17.9982 102.3C18.5354 103.643 18.804 105.256 18.5354 107.002ZM14.6403 108.749L14.9089 106.734C15.0432 105.793 15.0432 104.853 14.7746 104.181C14.506 103.509 14.103 102.837 13.2971 102.434C12.6256 102.031 11.5511 101.628 10.3422 101.493C9.13339 101.359 8.05888 101.359 7.25299 101.628C6.4471 101.897 5.90984 102.3 5.37258 102.971C4.96964 103.643 4.70101 104.449 4.5667 105.39L4.29807 107.405L14.6403 108.749Z" fill="black"/>
<path d="M55.8749 39.9558L45.8013 25.4448L51.7111 21.2795C52.7856 20.4734 53.8601 20.0703 54.9347 19.9359C56.0092 19.8016 57.0837 19.9359 58.0239 20.4734C58.9641 20.8765 59.77 21.6826 60.4416 22.6232C61.1131 23.5637 61.5161 24.6386 61.6504 25.7135C61.7847 26.7884 61.5161 27.7289 60.9788 28.8038C60.4416 29.7443 59.6357 30.6849 58.5612 31.3567L54.9347 33.9095L53.0543 31.2223L56.1435 29.0725C56.6808 28.6694 57.0837 28.2664 57.218 27.8633C57.3523 27.4602 57.4866 26.9227 57.4866 26.5196C57.4866 26.1166 57.218 25.5791 56.9494 25.176C56.6808 24.7729 56.2778 24.3699 55.8749 24.2355C55.4719 24.1011 55.069 23.9668 54.5317 24.1011C53.9945 24.2355 53.5915 24.3699 53.0543 24.7729L51.3082 25.9822L59.5014 37.5373L55.8749 39.9558Z" fill="black"/>
<path d="M73.6044 28.6694L69.4406 30.5505L67.5602 12.1429L72.6642 9.72443L85.4241 23.295L81.2603 25.176L71.9926 14.9645H71.8583L73.6044 28.6694ZM70.1122 22.6232L78.8427 18.5923L80.1858 21.5483L71.4554 25.5791L70.1122 22.6232Z" fill="black"/>
<path d="M94.8261 8.11209C94.5575 7.57464 94.2888 7.0372 93.7516 6.90284C93.2143 6.63411 92.5427 6.63411 91.7369 6.90284C91.1996 7.0372 90.7967 7.17156 90.3937 7.44028C90.1251 7.70901 89.8565 7.97773 89.7221 8.24645C89.5878 8.51518 89.5878 8.7839 89.5878 9.18698C89.5878 9.45571 89.7221 9.72443 89.8565 9.85879C89.9908 9.99315 90.2594 10.1275 90.528 10.2619C90.7967 10.3962 91.0653 10.3962 91.4682 10.3962C91.8712 10.3962 92.1398 10.3962 92.5428 10.3962H94.1545C95.0947 10.3962 95.9006 10.3962 96.5722 10.5306C97.2438 10.665 97.9153 10.9337 98.4526 11.2024C98.9898 11.4711 99.3928 11.8742 99.7957 12.4117C100.199 12.9491 100.467 13.4866 100.602 14.1584C100.87 15.2333 100.87 16.1738 100.467 17.1143C100.064 18.0549 99.5271 18.861 98.5869 19.5328C97.6467 20.2046 96.5722 20.7421 95.0947 21.0108C93.6173 21.4139 92.4084 21.4139 91.1996 21.2795C89.9908 21.1452 89.0506 20.6077 88.2447 19.9359C87.4388 19.2641 86.9015 18.1892 86.4986 16.8456L90.3937 15.9051C90.528 16.4425 90.7967 16.8456 91.1996 17.1143C91.6025 17.3831 92.0055 17.6518 92.5428 17.6518C93.08 17.6518 93.6173 17.6518 94.1545 17.5174C94.6918 17.383 95.229 17.2487 95.4977 16.98C95.9006 16.7112 96.0349 16.4425 96.3036 16.1738C96.4379 15.9051 96.4379 15.502 96.4379 15.2333C96.3036 14.9645 96.1692 14.6958 95.9006 14.4271C95.632 14.1584 95.3634 14.1584 94.8261 14.024C94.2888 13.8896 93.8859 13.8896 93.2143 13.8896H91.3339C89.7221 13.8896 88.5133 13.6209 87.4388 13.0835C86.3643 12.546 85.6927 11.6055 85.4241 10.2619C85.1554 9.18699 85.1554 8.24645 85.5584 7.30592C85.9613 6.36539 86.6329 5.55922 87.4388 4.88741C88.379 4.2156 89.4535 3.67815 90.7967 3.40943C92.1398 3.14071 93.3486 3.00634 94.4231 3.27507C95.4977 3.54379 96.4379 3.94688 97.1094 4.61869C97.781 5.29049 98.3183 6.09666 98.5869 7.17156L94.8261 8.11209Z" fill="black"/>
<path d="M114.167 5.55922C114.033 4.88741 113.764 4.48432 113.362 4.08124C112.824 3.81251 112.287 3.67815 111.347 3.67815C110.81 3.67815 110.407 3.81251 110.004 3.94688C109.601 4.08124 109.332 4.34996 109.198 4.61868C109.063 4.88741 108.929 5.15613 108.929 5.42485C108.929 5.69358 109.063 5.9623 109.198 6.09666C109.332 6.23103 109.466 6.49975 109.735 6.63411C110.004 6.76847 110.272 6.90283 110.541 7.0372C110.81 7.17156 111.212 7.17156 111.615 7.30592L113.093 7.57464C114.033 7.709 114.705 7.84337 115.511 8.11209C116.182 8.38081 116.719 8.64954 117.257 9.05262C117.794 9.45571 118.063 9.99315 118.331 10.5306C118.6 11.068 118.734 11.7399 118.868 12.4117C119.003 13.4866 118.734 14.4271 118.197 15.3676C117.66 16.1738 116.988 16.8456 115.913 17.383C114.973 17.9205 113.63 18.1892 112.153 18.3236C110.675 18.4579 109.332 18.3236 108.258 17.9205C107.183 17.5174 106.243 16.98 105.571 16.0394C104.9 15.2333 104.497 14.024 104.362 12.6804L108.392 12.4117C108.526 12.9491 108.66 13.4866 108.929 13.7553C109.198 14.1584 109.601 14.4271 110.138 14.5615C110.675 14.6958 111.212 14.8302 111.75 14.6958C112.287 14.6958 112.824 14.5615 113.227 14.2927C113.63 14.1584 113.899 13.8896 114.167 13.6209C114.302 13.3522 114.436 12.9491 114.436 12.6804C114.436 12.4117 114.302 12.0086 114.033 11.8742C113.764 11.6055 113.496 11.4711 113.093 11.3368C112.69 11.2024 112.153 11.068 111.481 10.9337L109.601 10.665C108.123 10.3962 106.78 9.99315 105.84 9.18698C104.9 8.51517 104.362 7.44028 104.362 6.09666C104.228 5.02177 104.497 4.08124 105.034 3.14071C105.571 2.33454 106.377 1.52836 107.317 0.990917C108.258 0.453471 109.466 0.184747 110.81 0.0503856C112.153 -0.0839761 113.362 0.0503858 114.436 0.453471C115.511 0.856556 116.316 1.394 116.854 2.20017C117.391 3.00634 117.794 3.94688 117.928 5.02177L114.167 5.55922Z" fill="black"/>
<path d="M123.032 17.6518L124.644 0.184748L131.897 0.856557C133.24 0.990919 134.315 1.394 135.255 1.93145C136.195 2.4689 136.867 3.27507 137.27 4.2156C137.672 5.15613 137.807 6.23103 137.807 7.44028C137.672 8.64954 137.269 9.72443 136.732 10.5306C136.061 11.3368 135.255 12.0086 134.315 12.4117C133.374 12.8148 132.166 12.9491 130.822 12.8148L126.39 12.4117L126.659 9.05262L130.285 9.45571C130.957 9.45571 131.494 9.45571 131.897 9.32135C132.3 9.18698 132.703 8.91826 132.971 8.51518C133.24 8.11209 133.374 7.70901 133.374 7.17156C133.374 6.63411 133.374 6.09666 133.24 5.69358C133.106 5.29049 132.703 4.88741 132.3 4.61868C131.897 4.34996 131.36 4.2156 130.688 4.08124L128.539 3.94688L127.196 18.0549L123.032 17.6518Z" fill="black"/>
<path d="M158.491 15.6363C157.954 17.5174 157.148 18.9954 156.074 20.0703C154.999 21.1452 153.79 21.817 152.313 22.2201C150.835 22.6232 149.492 22.4888 147.88 22.0857C146.403 21.6826 145.06 20.8765 144.12 19.9359C143.045 18.861 142.373 17.6518 142.105 16.1738C141.702 14.6958 141.836 12.9491 142.373 11.2024C142.911 9.32134 143.717 7.84337 144.791 6.76847C145.866 5.69358 147.074 5.02177 148.552 4.61868C150.029 4.2156 151.373 4.34996 152.984 4.75305C154.462 5.15613 155.805 5.9623 156.745 6.90283C157.685 7.84337 158.491 9.18698 158.76 10.665C159.028 12.0086 159.028 13.7553 158.491 15.6363ZM154.327 14.4271C154.596 13.3522 154.73 12.4117 154.73 11.4711C154.73 10.5306 154.327 9.85879 153.925 9.32135C153.522 8.7839 152.85 8.38081 152.044 8.11209C151.238 7.84337 150.432 7.84337 149.761 8.11209C149.089 8.38081 148.418 8.7839 147.88 9.45571C147.343 10.1275 146.94 11.068 146.672 12.1429C146.403 13.2178 146.269 14.1584 146.269 15.0989C146.403 15.9051 146.672 16.7112 147.074 17.2487C147.477 17.7861 148.149 18.1892 148.955 18.4579C149.761 18.7267 150.567 18.7267 151.238 18.4579C151.91 18.1892 152.581 17.7861 153.119 17.1143C153.522 16.3082 153.925 15.502 154.327 14.4271Z" fill="black"/>
<path d="M159.566 25.5791L167.49 9.85879L173.937 13.0835C175.146 13.6209 176.086 14.4271 176.624 15.2333C177.295 16.0394 177.564 16.98 177.698 18.0549C177.832 19.1298 177.564 20.0703 177.027 21.1452C176.489 22.2201 175.818 23.0262 174.878 23.5637C174.072 24.1011 172.997 24.3699 171.923 24.2355C170.848 24.2355 169.774 23.8324 168.565 23.295L164.401 21.2795L165.879 18.3236L169.236 20.0703C169.774 20.339 170.311 20.4734 170.848 20.6077C171.385 20.7421 171.654 20.6077 172.057 20.339C172.46 20.0703 172.729 19.8016 172.997 19.2641C173.266 18.7267 173.4 18.3236 173.266 17.9205C173.131 17.5174 172.997 17.1143 172.729 16.7112C172.46 16.3082 171.923 16.0394 171.385 15.7707L169.505 14.8302L163.192 27.4602L159.566 25.5791ZM172.057 22.8919L172.326 32.0285L168.162 29.8787L167.893 20.7421L172.057 22.8919Z" fill="black"/>
<path d="M182.936 22.0857L184.951 19.2641L196.905 28.132L194.89 30.9536L190.592 27.7289L182.131 39.0153L178.773 36.4624L187.235 25.176L182.936 22.0857Z" fill="black"/>
<path fill-rule="evenodd" clip-rule="evenodd" d="M159.431 90.7446L140.224 79.8613L140.09 102.837H138.881L138.747 80.5331L119.54 91.6851L99.7957 80.13V125.141L80.5888 136.293L100.736 147.983L100.064 149.058L79.9172 137.502L79.7829 159.806L99.6614 171.362L119.54 159.941V136.293L140.224 124.201V147.714L159.566 136.965L159.431 90.7446Z" fill="black"/>
<path fill-rule="evenodd" clip-rule="evenodd" d="M120.212 137.368L138.881 148.117V126.485L120.212 137.368Z" fill="black"/>
<path fill-rule="evenodd" clip-rule="evenodd" d="M138.747 79.0551L119.54 67.9031L100.333 79.0551L119.54 90.3415L138.747 79.0551Z" fill="black"/>
</svg>
