<svg width="194" height="197" viewBox="0 0 194 197" fill="none" xmlns="http://www.w3.org/2000/svg">
<path fill-rule="evenodd" clip-rule="evenodd" d="M80.4946 69.1182L97.1323 78.8191L113.248 69.4078L113.297 88.1818L114.395 88.195L114.452 68.8891L130.586 78.0094L130.695 116.783L114.467 125.858L114.452 106.141L97.1322 116.22V136.131L80.4154 145.644L63.7275 135.953L63.7885 117.292L80.7521 127.021L81.2544 126.052L64.4101 116.262L80.5151 106.864L80.4946 69.1182H80.4946Z" fill="white"/>
<path fill-rule="evenodd" clip-rule="evenodd" d="M97.644 117.108L113.378 126.214L97.644 117.108ZM113.329 107.927C113.336 107.922 113.345 107.922 113.352 107.926C113.359 107.931 113.364 107.938 113.364 107.947L113.378 126.214L113.318 107.987L97.6441 117.108L113.352 107.926L113.378 126.214L97.6441 117.108" fill="white"/>
<path fill-rule="evenodd" clip-rule="evenodd" d="M97.1324 77.6617L81.002 68.2566L97.1253 58.9058L113.249 68.2504" fill="white"/>
<path d="M171.332 74.6933L183.928 71.1288L185.4 76.3321C185.667 77.2752 185.728 78.1373 185.581 78.9183C185.44 79.7023 185.106 80.3703 184.58 80.9221C184.058 81.4727 183.367 81.8699 182.506 82.1136C181.633 82.3607 180.836 82.3801 180.118 82.1716C179.403 81.962 178.786 81.5519 178.268 80.9413C177.754 80.3294 177.361 79.5438 177.09 78.5843L176.158 75.2938L178.557 74.615L179.328 77.3397C179.458 77.7989 179.626 78.1655 179.832 78.4393C180.043 78.7162 180.294 78.8997 180.586 78.99C180.881 79.0791 181.224 79.0686 181.613 78.9584C182.003 78.8481 182.302 78.6771 182.511 78.4452C182.724 78.2122 182.85 77.9219 182.889 77.5743C182.932 77.2256 182.889 76.8236 182.76 76.3685L182.336 74.8677L172.193 77.7378L171.332 74.6933ZM179.095 80.1558L174.226 84.9216L173.286 81.6004L178.173 76.896L179.095 80.1558Z" fill="white"/>
<path d="M174.633 88.3342L187.662 87.0654L188.547 96.1503L185.989 96.3993L185.411 90.4636L182.739 90.7238L183.272 96.1951L180.708 96.4448L180.175 90.9735L177.497 91.2343L178.075 97.17L175.518 97.4191L174.633 88.3342Z" fill="white"/>
<path d="M175.457 102.345L188.504 103.412L188.063 108.802C187.983 109.778 187.723 110.606 187.283 111.284C186.846 111.967 186.273 112.473 185.562 112.804C184.855 113.135 184.053 113.264 183.157 113.191C182.256 113.117 181.485 112.855 180.842 112.405C180.203 111.96 179.728 111.359 179.418 110.602C179.108 109.846 178.994 108.968 179.075 107.97L179.347 104.645L181.832 104.848L181.608 107.587C181.569 108.063 181.619 108.467 181.759 108.799C181.898 109.135 182.11 109.398 182.393 109.588C182.681 109.779 183.025 109.89 183.424 109.923C183.828 109.956 184.183 109.902 184.489 109.76C184.8 109.619 185.05 109.393 185.237 109.084C185.425 108.774 185.538 108.383 185.577 107.912L185.704 106.358L175.199 105.498L175.457 102.345Z" fill="white"/>
<path d="M184.325 127.378L183.476 130.42L175.343 128.149C174.403 127.887 173.647 127.435 173.074 126.793C172.505 126.152 172.142 125.378 171.983 124.471C171.829 123.565 171.9 122.582 172.195 121.524C172.495 120.452 172.945 119.569 173.546 118.874C174.151 118.18 174.862 117.709 175.679 117.459C176.501 117.211 177.382 117.218 178.322 117.48L186.455 119.75L185.604 122.798L177.736 120.601C177.3 120.48 176.886 120.466 176.493 120.56C176.098 120.658 175.757 120.852 175.467 121.143C175.178 121.434 174.97 121.807 174.843 122.263C174.716 122.718 174.701 123.143 174.799 123.538C174.895 123.936 175.087 124.28 175.374 124.568C175.661 124.856 176.022 125.06 176.457 125.182L184.325 127.378Z" fill="white"/>
<path d="M168.918 131.417L180.631 137.263L178.194 142.147C177.756 143.024 177.266 143.696 176.723 144.164C176.179 144.635 175.609 144.908 175.015 144.982C174.418 145.061 173.826 144.954 173.239 144.661C172.793 144.438 172.441 144.146 172.184 143.784C171.93 143.424 171.77 143.023 171.705 142.581C171.64 142.139 171.669 141.68 171.793 141.203L171.678 141.146C171.42 141.607 171.074 141.98 170.642 142.265C170.207 142.553 169.722 142.715 169.184 142.752C168.651 142.79 168.102 142.669 167.537 142.387C166.908 142.073 166.426 141.632 166.09 141.065C165.758 140.499 165.6 139.842 165.617 139.093C165.637 138.346 165.863 137.539 166.295 136.674L168.918 131.417ZM169.787 135.387L168.914 137.138C168.607 137.751 168.498 138.261 168.586 138.667C168.672 139.077 168.923 139.385 169.339 139.593C169.64 139.743 169.935 139.802 170.222 139.769C170.514 139.739 170.783 139.623 171.031 139.423C171.282 139.224 171.498 138.944 171.679 138.582L172.578 136.78L169.787 135.387ZM174.403 137.691L173.621 139.258C173.467 139.567 173.381 139.867 173.364 140.158C173.347 140.45 173.403 140.711 173.531 140.942C173.657 141.176 173.857 141.361 174.131 141.498C174.524 141.694 174.902 141.709 175.266 141.543C175.63 141.377 175.93 141.058 176.166 140.585L176.971 138.972L174.403 137.691Z" fill="white"/>
<path d="M162.137 143.738L172.672 151.51L170.793 154.056L162.327 147.81L159.094 152.193L157.026 150.667L162.137 143.738Z" fill="white"/>
<path d="M160.924 165.463L151.604 156.269L153.826 154.017L163.146 163.21L160.924 165.463Z" fill="white"/>
<path d="M142.592 174.129L145.172 172.243C145.4 172.482 145.645 172.67 145.908 172.805C146.17 172.941 146.445 173.02 146.731 173.043C147.017 173.066 147.309 173.029 147.608 172.932C147.905 172.841 148.199 172.69 148.488 172.478C149 172.104 149.35 171.655 149.538 171.132C149.723 170.612 149.741 170.041 149.594 169.421C149.442 168.803 149.12 168.157 148.627 167.483C148.114 166.781 147.584 166.266 147.038 165.937C146.49 165.614 145.946 165.465 145.405 165.491C144.864 165.523 144.342 165.723 143.84 166.09C143.558 166.296 143.328 166.52 143.15 166.76C142.969 167.004 142.841 167.258 142.766 167.524C142.691 167.796 142.669 168.073 142.701 168.356C142.733 168.644 142.819 168.932 142.961 169.219L140.369 171.09C140.072 170.59 139.871 170.03 139.766 169.409C139.657 168.792 139.662 168.152 139.78 167.491C139.901 166.832 140.162 166.187 140.565 165.554C140.965 164.924 141.528 164.344 142.254 163.813C143.21 163.114 144.22 162.697 145.284 162.563C146.346 162.436 147.392 162.616 148.42 163.105C149.447 163.594 150.385 164.418 151.233 165.577C152.083 166.74 152.582 167.887 152.729 169.02C152.877 170.153 152.726 171.206 152.276 172.179C151.826 173.152 151.131 173.982 150.192 174.669C149.553 175.137 148.895 175.48 148.221 175.698C147.549 175.92 146.883 176.012 146.221 175.973C145.562 175.938 144.923 175.769 144.305 175.466C143.688 175.162 143.117 174.717 142.592 174.129Z" fill="white"/>
<path d="M116.781 182.98C116.326 181.614 116.203 180.368 116.412 179.243C116.621 178.118 117.092 177.159 117.825 176.367C118.554 175.576 119.474 174.995 120.586 174.624C121.702 174.253 122.789 174.166 123.849 174.366C124.908 174.566 125.858 175.051 126.698 175.822C127.537 176.598 128.183 177.667 128.637 179.03C129.092 180.396 129.217 181.641 129.012 182.765C128.803 183.89 128.334 184.848 127.605 185.639C126.876 186.43 125.954 187.012 124.838 187.383C123.726 187.754 122.641 187.841 121.583 187.646C120.522 187.452 119.57 186.967 118.727 186.192C117.885 185.417 117.236 184.347 116.781 182.98ZM119.85 181.958C120.119 182.766 120.462 183.411 120.878 183.892C121.291 184.375 121.759 184.688 122.283 184.832C122.803 184.978 123.362 184.951 123.961 184.752C124.555 184.554 125.019 184.24 125.352 183.81C125.684 183.38 125.873 182.848 125.918 182.213C125.958 181.58 125.844 180.859 125.574 180.05C125.305 179.242 124.964 178.596 124.552 178.114C124.135 177.632 123.665 177.32 123.141 177.176C122.617 177.031 122.057 177.058 121.463 177.256C120.865 177.456 120.401 177.77 120.072 178.198C119.739 178.628 119.553 179.16 119.512 179.793C119.468 180.428 119.58 181.149 119.85 181.958Z" fill="white"/>
<path d="M111.055 177.261L112.843 190.229L103.99 191.45L103.639 188.904L109.357 188.116L108.991 185.456L103.836 186.167L103.484 183.615L108.639 182.904L107.92 177.693L111.055 177.261Z" fill="white"/>
<path d="M89.6859 178.309L87.6665 191.243L84.5403 190.755L85.3508 185.564L80.2542 184.768L79.4437 189.959L76.3238 189.472L78.3432 176.538L81.463 177.025L80.6516 182.223L85.7482 183.018L86.5597 177.821L89.6859 178.309Z" fill="white"/>
<path d="M71.3895 174.253L74.5822 175.424L65.9287 186.194L61.9738 184.744L62.3335 170.932L65.5262 172.103L65.0417 182.356L65.1377 182.391L71.3895 174.253ZM70.042 179.246L63.3685 176.799L64.1959 174.543L70.8694 176.99L70.042 179.246Z" fill="white"/>
<path d="M45.717 170.519L48.445 172.184C48.3104 172.487 48.2307 172.785 48.2058 173.079C48.1809 173.374 48.2124 173.657 48.3002 173.931C48.388 174.204 48.5337 174.46 48.7372 174.699C48.9349 174.94 49.1865 175.153 49.4921 175.34C50.034 175.671 50.5825 175.823 51.1374 175.797C51.6886 175.769 52.2229 175.569 52.7403 175.196C53.254 174.82 53.7284 174.276 54.1636 173.563C54.6165 172.821 54.8906 172.135 54.9861 171.504C55.0756 170.875 55.0053 170.315 54.7752 169.825C54.5392 169.337 54.1556 168.93 53.6246 168.606C53.3263 168.424 53.032 168.297 52.7417 168.224C52.4478 168.15 52.1636 168.129 51.8893 168.161C51.6091 168.195 51.3447 168.28 51.0959 168.418C50.8412 168.557 50.6081 168.747 50.3965 168.987L47.6785 167.306C48.0277 166.84 48.4689 166.44 49.002 166.107C49.5315 165.771 50.1246 165.531 50.7812 165.388C51.4357 165.248 52.1322 165.244 52.8708 165.375C53.6058 165.504 54.357 165.803 55.1245 166.271C56.1356 166.889 56.9059 167.663 57.4353 168.596C57.9588 169.529 58.1906 170.564 58.1308 171.701C58.071 172.838 57.667 174.019 56.9189 175.245C56.1684 176.474 55.2978 177.373 54.3068 177.942C53.3159 178.51 52.2849 178.772 51.2138 178.727C50.1427 178.682 49.1107 178.357 48.1177 177.751C47.4412 177.338 46.8733 176.862 46.414 176.322C45.9525 175.785 45.6135 175.204 45.3968 174.577C45.1779 173.955 45.0907 173.3 45.1354 172.613C45.1801 171.926 45.374 171.229 45.717 170.519Z" fill="white"/>
<path d="M46.9376 160.707L38.1239 170.387L35.7844 168.257L39.5113 164.164L39.3837 164.047L32.4571 165.227L29.7017 162.718L37.0665 161.522L38.4541 152.983L41.252 155.53L40.198 161.53L42.2097 161.2L44.5982 158.577L46.9376 160.707Z" fill="white"/>
<path d="M36.9305 150.867L26.5366 158.826L20.9874 151.579L23.0276 150.017L26.6532 154.752L28.7848 153.12L25.4429 148.755L27.4881 147.189L30.8301 151.553L32.9667 149.917L29.3411 145.182L31.3813 143.62L36.9305 150.867Z" fill="white"/>
<path d="M28.8317 139.405L17.1886 145.39L14.7166 140.58C14.2686 139.708 14.0392 138.875 14.0284 138.081C14.0119 137.284 14.2069 136.563 14.6133 135.918C15.0159 135.276 15.6152 134.75 16.4111 134.34C17.2184 133.926 17.995 133.749 18.7408 133.811C19.4829 133.876 20.1683 134.156 20.7971 134.652C21.422 135.15 21.9624 135.842 22.4182 136.729L23.9815 139.771L21.7643 140.91L20.4699 138.392C20.2517 137.967 20.0146 137.641 19.7586 137.414C19.4968 137.184 19.2143 137.054 18.9109 137.023C18.6037 136.994 18.2701 137.072 17.9101 137.257C17.55 137.442 17.2905 137.669 17.1315 137.937C16.9687 138.208 16.9026 138.517 16.9331 138.866C16.9599 139.216 17.0814 139.602 17.2976 140.022L18.0106 141.41L27.3853 136.591L28.8317 139.405ZM20.1414 135.585L23.9724 129.951L25.5503 133.021L21.69 138.599L20.1414 135.585Z" fill="white"/>
<path d="M22.9115 126.649L10.4132 130.543L9.47202 127.522L19.5171 124.392L17.8972 119.193L20.3505 118.429L22.9115 126.649Z" fill="white"/>
<path d="M19.1153 111.263L19.5336 114.637L5.99875 111.864L5.48059 107.684L17.9287 101.69L18.3471 105.065L9.00702 109.321L9.0196 109.422L19.1153 111.263ZM14.0582 112.347L13.1839 105.293L15.569 104.997L16.4434 112.051L14.0582 112.347Z" fill="white"/>
<path d="M5.9161 87.1154L18.9719 88.0734L18.7754 90.7509L10.8591 95.3935L10.853 95.4764L18.3881 96.0293L18.1566 99.1849L5.10076 98.2269L5.30003 95.5111L13.1995 90.925L13.2074 90.8166L5.68501 90.2646L5.9161 87.1154Z" fill="white"/>
<path d="M21.242 78.684L19.9522 83.3477L7.33493 79.8583L8.62303 75.2007C8.97856 73.9152 9.53728 72.8781 10.2992 72.0896C11.0581 71.2959 11.9797 70.777 13.0641 70.5331C14.1444 70.288 15.3396 70.3467 16.6498 70.709C17.9641 71.0725 19.0237 71.6375 19.8286 72.4039C20.6347 73.1662 21.1614 74.0834 21.4088 75.1555C21.652 76.2264 21.5964 77.4026 21.242 78.684ZM18.1958 79.5791L18.6098 78.082C18.8052 77.3756 18.8513 76.7451 18.7483 76.1904C18.6423 75.6306 18.3528 75.1504 17.88 74.7499C17.4041 74.3442 16.7124 74.0158 15.8047 73.7648C14.897 73.5137 14.1389 73.4412 13.5305 73.547C12.9179 73.6517 12.4238 73.9196 12.0481 74.3507C11.6695 74.7765 11.3802 75.3509 11.1803 76.0738L10.7782 77.5277L18.1958 79.5791Z" fill="white"/>
<path d="M48.5763 41.9897L40.5803 31.6246L44.862 28.3215C45.6381 27.7229 46.4249 27.3581 47.2227 27.227C48.0212 27.0901 48.7822 27.1731 49.5057 27.4761C50.2266 27.7757 50.8616 28.2815 51.4108 28.9934C51.9626 29.7087 52.2885 30.4556 52.3886 31.2342C52.4894 32.0067 52.3646 32.7623 52.0141 33.501C51.6636 34.2396 51.0918 34.9147 50.2989 35.5264L47.657 37.5644L46.1344 35.5906L48.3106 33.9118C48.6885 33.6202 48.9533 33.3111 49.1048 32.9843C49.2597 32.6549 49.3119 32.3213 49.2613 31.9836C49.2081 31.6426 49.0591 31.3134 48.8145 30.9963C48.5672 30.6757 48.288 30.4498 47.9768 30.3185C47.663 30.1838 47.3284 30.1513 46.9731 30.2209C46.6177 30.2905 46.2528 30.4698 45.8783 30.7587L44.6434 31.7113L51.0815 40.0571L48.5763 41.9897Z" fill="white"/>
<path d="M61.5031 30.0935L58.5224 31.7303L56.0926 18.1297L59.7849 16.1021L69.9577 25.4505L66.9771 27.0874L59.5684 19.9839L59.4788 20.0331L61.5031 30.0935ZM58.6254 25.7961L64.8557 22.3746L66.0126 24.4813L59.7823 27.9027L58.6254 25.7961Z" fill="white"/>
<path d="M75.8727 14.4242C75.6731 13.998 75.3708 13.7199 74.9657 13.5901C74.5633 13.4548 74.0715 13.4923 73.4905 13.7026C73.1059 13.8419 72.8034 14.008 72.5833 14.201C72.3631 14.394 72.2208 14.6019 72.1564 14.8246C72.0906 15.0433 72.0962 15.2656 72.1735 15.4914C72.2322 15.6787 72.327 15.8279 72.4579 15.9391C72.5928 16.0489 72.758 16.1296 72.9534 16.1812C73.1514 16.2274 73.3771 16.2499 73.6305 16.2488C73.8839 16.2477 74.1617 16.2265 74.4639 16.185L75.6088 16.0425C76.2657 15.9543 76.8664 15.9362 77.411 15.9883C77.9596 16.039 78.4473 16.1593 78.8741 16.3492C79.3049 16.5377 79.6742 16.8006 79.9821 17.1378C80.29 17.475 80.5351 17.8893 80.7175 18.3807C80.9949 19.1595 81.0401 19.8977 80.853 20.5954C80.666 21.293 80.2615 21.9221 79.6396 22.4826C79.0217 23.0417 78.1998 23.5068 77.1741 23.8782C76.1443 24.251 75.1909 24.4216 74.3139 24.3901C73.4369 24.3586 72.6722 24.1052 72.0197 23.6299C71.3672 23.1546 70.8609 22.4382 70.5008 21.4809L73.3497 20.4496C73.5174 20.8376 73.7432 21.1297 74.0273 21.326C74.3113 21.5223 74.6423 21.6291 75.0202 21.6464C75.4021 21.6622 75.8114 21.5911 76.2481 21.433C76.6488 21.2879 76.9698 21.1106 77.2111 20.9008C77.4565 20.6897 77.6205 20.4604 77.7031 20.2129C77.7857 19.9655 77.7841 19.7168 77.6982 19.4669C77.61 19.236 77.4661 19.0637 77.2664 18.9502C77.0652 18.8327 76.7966 18.7668 76.4606 18.7524C76.1272 18.7327 75.7172 18.7519 75.2307 18.8102L73.8357 18.9753C72.6814 19.1167 71.6991 19.0259 70.8887 18.7029C70.077 18.3759 69.5041 17.7448 69.1701 16.8098C68.8905 16.0499 68.8534 15.3088 69.0587 14.5864C69.264 13.864 69.6732 13.2105 70.2864 12.626C70.8996 12.0415 71.6731 11.5802 72.6067 11.2422C73.5603 10.897 74.4465 10.7598 75.2652 10.8305C76.0864 10.8958 76.7966 11.1485 77.3955 11.5888C77.9945 12.0291 78.4366 12.6305 78.7216 13.3929L75.8727 14.4242Z" fill="white"/>
<path d="M92.7488 11.0385C92.6309 10.5829 92.3847 10.254 92.0104 10.052C91.6396 9.84515 91.1494 9.79174 90.5396 9.89181C90.1359 9.95806 89.8082 10.0658 89.5563 10.2151C89.3044 10.3644 89.1264 10.5426 89.0222 10.7497C88.9173 10.9526 88.8821 11.1722 88.9165 11.4084C88.9399 11.6032 89.0056 11.7673 89.1139 11.9006C89.2264 12.0333 89.3739 12.143 89.5565 12.2296C89.7427 12.3113 89.9604 12.3749 90.2097 12.4204C90.459 12.4658 90.736 12.4959 91.0407 12.5107L92.1923 12.5808C92.8542 12.6147 93.4481 12.7072 93.9738 12.8585C94.5038 13.009 94.9611 13.2168 95.3457 13.4819C95.7346 13.7463 96.0494 14.0724 96.2901 14.4605C96.5308 14.8485 96.6958 15.3007 96.7848 15.8173C96.9145 16.6338 96.8234 17.3677 96.5114 18.0192C96.1994 18.6706 95.6863 19.2147 94.9721 19.6515C94.262 20.0876 93.3687 20.394 92.2922 20.5707C91.2115 20.748 90.243 20.7407 89.3867 20.5488C88.5304 20.3568 87.8252 19.9673 87.2711 19.3802C86.717 18.7932 86.3508 17.9961 86.1726 16.9889L89.1624 16.4982C89.256 16.9104 89.4243 17.239 89.6675 17.4841C89.9107 17.7292 90.2164 17.895 90.5847 17.9814C90.9572 18.067 91.3726 18.0723 91.831 17.9971C92.2515 17.928 92.5996 17.8126 92.8753 17.6508C93.1553 17.4882 93.3586 17.2929 93.4852 17.0649C93.6119 16.8368 93.6559 16.592 93.6174 16.3306C93.5731 16.0874 93.4633 15.8917 93.2878 15.7434C93.1116 15.591 92.8597 15.4769 92.532 15.4011C92.2079 15.3204 91.8013 15.2641 91.3124 15.232L89.9108 15.1382C88.7502 15.0653 87.8012 14.7956 87.064 14.3293C86.326 13.8588 85.8788 13.1333 85.7222 12.1528C85.5869 11.3546 85.6864 10.6192 86.0208 9.9468C86.3553 9.27439 86.8776 8.70717 87.5877 8.24516C88.2978 7.78315 89.1428 7.47174 90.1225 7.31094C91.1234 7.14669 92.0197 7.17448 92.8115 7.39432C93.6068 7.60927 94.2584 7.98814 94.7664 8.53094C95.2743 9.07373 95.5984 9.74603 95.7387 10.5478L92.7488 11.0385Z" fill="white"/>
<path d="M100.756 20.7582L102.443 7.77641L107.806 8.47319C108.778 8.59947 109.592 8.89863 110.248 9.37065C110.909 9.839 111.388 10.4362 111.685 11.1623C111.982 11.8842 112.073 12.691 111.957 13.5826C111.841 14.4785 111.542 15.2368 111.062 15.8577C110.586 16.4749 109.963 16.9203 109.193 17.1941C108.423 17.4678 107.541 17.5402 106.548 17.4112L103.239 16.9812L103.56 14.5091L106.286 14.8633C106.759 14.9248 107.165 14.8937 107.503 14.7701C107.846 14.647 108.119 14.4483 108.322 14.1739C108.526 13.8952 108.654 13.5573 108.705 13.1601C108.757 12.7586 108.72 12.4014 108.593 12.0884C108.467 11.7712 108.253 11.5114 107.953 11.3091C107.653 11.1068 107.268 10.9752 106.799 10.9142L105.252 10.7133L103.894 21.1659L100.756 20.7582Z" fill="white"/>
<path d="M127.332 20.4878C126.871 21.8524 126.218 22.9204 125.373 23.6918C124.527 24.4633 123.573 24.9439 122.511 25.1337C121.452 25.3248 120.368 25.2328 119.257 24.8578C118.143 24.4814 117.224 23.8942 116.499 23.0962C115.775 22.2982 115.31 21.3382 115.104 20.2162C114.904 19.0915 115.033 17.8489 115.493 16.4883C115.954 15.1238 116.605 14.0551 117.446 13.2822C118.292 12.5108 119.244 12.0295 120.302 11.8384C121.361 11.6472 122.447 11.7399 123.562 12.1163C124.672 12.4914 125.59 13.0759 126.316 13.8698C127.046 14.6651 127.513 15.6258 127.717 16.7519C127.921 17.8779 127.793 19.1232 127.332 20.4878ZM124.268 19.4526C124.541 18.6452 124.656 17.924 124.614 17.2892C124.576 16.6556 124.392 16.1233 124.061 15.6921C123.734 15.2622 123.271 14.9464 122.674 14.7445C122.08 14.5441 121.521 14.5148 120.996 14.6569C120.472 14.799 120 15.1097 119.582 15.5891C119.167 16.0699 118.824 16.714 118.551 17.5214C118.278 18.3289 118.161 19.0494 118.199 19.6829C118.241 20.3178 118.427 20.8508 118.758 21.282C119.089 21.7132 119.552 22.0291 120.145 22.2295C120.743 22.4314 121.302 22.4606 121.823 22.3172C122.347 22.1751 122.817 21.8637 123.231 21.3829C123.65 20.9035 123.995 20.2601 124.268 19.4526Z" fill="white"/>
<path d="M129.223 28.4503L135.755 17.105L140.441 19.803C141.291 20.292 141.935 20.8673 142.376 21.5289C142.822 22.1889 143.049 22.9 143.058 23.6622C143.069 24.4207 142.851 25.1878 142.404 25.9633C141.951 26.75 141.395 27.3196 140.735 27.6721C140.077 28.021 139.349 28.1576 138.551 28.0821C137.756 28.003 136.927 27.7146 136.062 27.2171L133.099 25.5109L134.342 23.3505L136.796 24.7632C137.21 25.0014 137.586 25.1466 137.925 25.199C138.269 25.2497 138.577 25.2058 138.849 25.0671C139.123 24.9248 139.361 24.6782 139.562 24.3273C139.764 23.9765 139.859 23.6451 139.847 23.3332C139.837 23.0176 139.725 22.7218 139.51 22.4457C139.297 22.166 138.986 21.9081 138.576 21.6721L137.224 20.894L131.965 30.0289L129.223 28.4503ZM138.596 26.9422L138.436 33.7537L135.444 32.0316L135.66 25.2519L138.596 26.9422Z" fill="white"/>
<path d="M147.338 29.5631L149.019 27.6194L157.388 34.8565L155.708 36.8002L152.705 34.2039L145.823 42.1625L143.464 40.1222L150.345 32.1636L147.338 29.5631Z" fill="white"/>
</svg>
